<svg xmlns="http://www.w3.org/2000/svg" viewBox="0 0 640 420">
  <defs>
    <linearGradient id="grad" x1="0" y1="0" x2="1" y2="1">
      <stop offset="0%" stop-color="#667eea"/>
      <stop offset="100%" stop-color="#764ba2"/>
    </linearGradient>
    <linearGradient id="card" x1="0" y1="0" x2="1" y2="1">
      <stop offset="0%" stop-color="#ffffff" stop-opacity="0.95"/>
      <stop offset="100%" stop-color="#f3f4ff" stop-opacity="0.95"/>
    </linearGradient>
  </defs>
  <rect width="640" height="420" rx="28" fill="#101537"/>
  <rect x="24" y="24" width="592" height="372" rx="24" fill="#151c46"/>
  <rect x="48" y="56" width="544" height="80" rx="20" fill="url(#card)"/>
  <rect x="48" y="156" width="160" height="220" rx="20" fill="url(#card)"/>
  <rect x="224" y="156" width="368" height="104" rx="20" fill="url(#card)"/>
  <rect x="224" y="272" width="368" height="104" rx="20" fill="url(#card)"/>
  <text x="80" y="108" fill="#5b67f1" font-family="Inter, sans-serif" font-weight="700" font-size="32">Dashboard</text>
  <g transform="translate(72,188)">
    <rect width="56" height="56" rx="16" fill="#5b67f1" opacity="0.2"/>
    <text x="18" y="38" fill="#5b67f1" font-family="Inter, sans-serif" font-size="28">%</text>
  </g>
  <g fill="#5b67f1" opacity="0.45">
    <rect x="248" y="184" width="120" height="24" rx="12"/>
    <rect x="384" y="184" width="80" height="24" rx="12"/>
    <rect x="480" y="184" width="88" height="24" rx="12"/>
    <rect x="248" y="220" width="184" height="18" rx="9"/>
    <rect x="448" y="220" width="128" height="18" rx="9"/>
    <rect x="248" y="300" width="150" height="24" rx="12"/>
    <rect x="410" y="300" width="110" height="24" rx="12"/>
    <rect x="248" y="336" width="200" height="18" rx="9"/>
    <rect x="464" y="336" width="112" height="18" rx="9"/>
  </g>
  <polyline points="248,260 296,244 344,268 392,220 440,250 488,208 536,232" fill="none" stroke="url(#grad)" stroke-width="8" stroke-linecap="round" stroke-linejoin="round" opacity="0.85"/>
  <circle cx="248" cy="260" r="8" fill="#5b67f1" opacity="0.9"/>
  <circle cx="296" cy="244" r="8" fill="#5b67f1" opacity="0.9"/>
  <circle cx="344" cy="268" r="8" fill="#5b67f1" opacity="0.9"/>
  <circle cx="392" cy="220" r="8" fill="#5b67f1" opacity="0.9"/>
  <circle cx="440" cy="250" r="8" fill="#5b67f1" opacity="0.9"/>
  <circle cx="488" cy="208" r="8" fill="#5b67f1" opacity="0.9"/>
  <circle cx="536" cy="232" r="8" fill="#5b67f1" opacity="0.9"/>
</svg>
