<svg xmlns="http://www.w3.org/2000/svg" viewBox="0 0 640 420">
  <defs>
    <linearGradient id="bg" x1="0" y1="0" x2="1" y2="1">
      <stop offset="0%" stop-color="#764ba2"/>
      <stop offset="100%" stop-color="#667eea"/>
    </linearGradient>
  </defs>
  <rect width="640" height="420" rx="28" fill="#0f1435"/>
  <rect x="28" y="32" width="584" height="356" rx="26" fill="#141a45"/>
  <rect x="52" y="64" width="536" height="68" rx="18" fill="#ffffff" opacity="0.92"/>
  <text x="72" y="108" fill="#5b67f1" font-family="Inter, sans-serif" font-size="28" font-weight="700">Clientes</text>
  <g transform="translate(52,152)">
    <rect width="536" height="204" rx="24" fill="#f6f7ff" opacity="0.95"/>
    <g fill="#d9dcff">
      <rect x="24" y="30" width="488" height="32" rx="16"/>
      <rect x="24" y="82" width="360" height="20" rx="10"/>
      <rect x="24" y="118" width="408" height="20" rx="10"/>
      <rect x="24" y="154" width="260" height="20" rx="10"/>
    </g>
    <g transform="translate(420,24)">
      <rect width="64" height="64" rx="18" fill="url(#bg)" opacity="0.75"/>
      <text x="22" y="44" fill="#ffffff" font-size="28" font-family="Inter, sans-serif">+</text>
    </g>
    <g transform="translate(72,24)">
      <circle cx="0" cy="0" r="28" fill="#5b67f1" opacity="0.25"/>
      <circle cx="0" cy="0" r="22" fill="#5b67f1" opacity="0.8"/>
    </g>
    <text x="132" y="60" fill="#1b1d33" font-family="Inter, sans-serif" font-size="22" font-weight="600">Cooperativa Vale Verde</text>
    <text x="132" y="102" fill="#5c5f7a" font-family="Inter, sans-serif" font-size="18">Limite de crédito: R$ 45.000</text>
    <text x="132" y="138" fill="#5c5f7a" font-family="Inter, sans-serif" font-size="18">Última visita: 12/03/2024</text>
  </g>
</svg>
